<svg width="32" height="32" viewBox="0 0 32 32" fill="none" xmlns="http://www.w3.org/2000/svg">
<path d="M16.0922 8.92787L9.684 3.45068C9.13122 2.9168 8.45559 2.50156 7.71855 2.26429C4.42233 1.19653 -0.0204029 3.41113 7.05039e-05 8.05785C7.05039e-05 8.82901 7.05039e-05 8.94765 7.05039e-05 9.52107V25.5967C7.05039e-05 27.4356 1.55605 28.9384 3.46008 28.9384C5.36411 28.9384 6.92009 27.4356 6.92009 25.5967V9.77812L12.3251 14.7214L16.0717 8.92787H16.0922Z" fill="#E08D0D"/>
<path d="M24.3223 2.30725C23.5852 2.54453 22.9096 2.95977 22.3568 3.49365L16.7676 8.67424C18.0779 10.4934 19.3882 12.3521 20.678 14.2503L25.0798 9.84086V25.6595C25.0798 27.4984 26.6358 29.0011 28.5398 29.0011C30.4438 29.0011 31.9998 27.4984 31.9998 25.6595V9.56404C31.9998 8.99061 31.9998 8.8522 31.9998 8.10082C32.0203 3.4541 27.5571 1.2395 24.3018 2.30725H24.3223Z" fill="#E08D0D"/>
<path d="M16.0504 28.7066C12.2218 28.7066 9.10986 25.7802 9.10986 22.2012C9.10986 22.0628 9.10986 21.9442 9.10986 21.8255C9.10986 21.7266 9.10986 21.6476 9.10986 21.5685C9.10986 21.1137 9.10986 19.7493 12.3242 14.549C13.8802 12.0378 15.4362 9.82315 15.4566 9.80337L16.0504 8.95312L16.6441 9.80337C16.6441 9.80337 18.2205 12.1168 19.756 14.6478C22.9294 19.9075 22.9294 21.173 22.9294 21.5685C22.9294 21.6476 22.9294 21.7266 22.9294 21.8057C22.9294 21.9046 22.9294 22.043 22.9294 22.1617C22.9294 25.7604 19.8175 28.6671 15.9889 28.6671L16.0504 28.7066ZM16.0504 11.4643C13.7164 14.8653 10.5635 19.9866 10.5635 21.5882C10.5635 21.7266 10.5635 21.8453 10.5635 21.9442C10.5635 22.043 10.5635 22.1221 10.5635 22.2012C10.5635 25.0288 13.0408 27.3422 16.0708 27.3422C19.1009 27.3422 21.5782 25.0486 21.5782 22.2012C21.5782 22.1221 21.5782 22.043 21.5782 21.9442C21.5782 21.8453 21.5782 21.7266 21.5782 21.5882C21.5782 21.1928 21.2915 19.8284 18.5891 15.3597C17.6473 13.7976 16.7055 12.3344 16.1118 11.4446L16.0504 11.4643Z" fill="#E2D3BF"/>
</svg>
